<?xml version="1.0" standalone="no"?>
<!DOCTYPE svg PUBLIC "-//W3C//DTD SVG 20010904//EN"
 "http://www.w3.org/TR/2001/REC-SVG-20010904/DTD/svg10.dtd">
<svg version="1.0" xmlns="http://www.w3.org/2000/svg"
 width="300.000000pt" height="618.000000pt" viewBox="0 0 300.000000 618.000000"
 preserveAspectRatio="xMidYMid meet">

<g transform="translate(0.000000,618.000000) scale(0.100000,-0.100000)"
fill="#000000" stroke="none">
<path d="M0 5915 l0 -265 1495 0 1495 0 0 265 0 265 -1495 0 -1495 0 0 -265z
m484 53 c9 -12 16 -34 16 -48 0 -44 -26 -70 -71 -70 l-39 0 0 70 0 70 39 0
c30 0 44 -6 55 -22z m324 10 c7 -7 12 -18 12 -25 0 -18 -27 -16 -34 2 -9 23
-35 18 -46 -10 -12 -31 3 -75 25 -75 9 0 18 7 21 15 7 18 34 20 34 2 0 -22
-22 -37 -55 -37 -42 0 -55 16 -55 70 0 54 13 70 55 70 17 0 36 -5 43 -12z m52
-58 c0 -56 -3 -70 -15 -70 -12 0 -15 14 -15 70 0 56 3 70 15 70 12 0 15 -14
15 -70z m150 50 c0 -14 7 -20 23 -20 30 0 47 -18 47 -50 0 -36 -17 -50 -62
-50 l-38 0 0 70 c0 56 3 70 15 70 8 0 15 -9 15 -20z m228 8 c15 -15 16 -38 1
-38 -7 0 -17 7 -24 17 -21 28 -45 9 -45 -37 0 -46 24 -65 45 -37 15 20 35 22
35 4 0 -22 -22 -37 -55 -37 -42 0 -55 16 -55 70 0 54 13 70 55 70 17 0 36 -5
43 -12z m832 3 c0 -5 7 -26 16 -47 l16 -39 18 45 c12 31 24 46 39 48 20 3 21
-1 21 -67 0 -56 -3 -71 -15 -71 -10 0 -15 11 -16 38 l-1 37 -15 -37 c-19 -47
-39 -48 -58 -5 l-14 32 -1 -32 c0 -23 -5 -33 -15 -33 -12 0 -15 14 -15 70 0
63 2 70 20 70 11 0 20 -4 20 -9z m-282 -28 c12 -12 13 -18 4 -21 -14 -4 -17
-62 -2 -62 6 0 10 -4 10 -10 0 -5 -11 -10 -25 -10 -23 0 -25 4 -25 41 0 36 -2
40 -22 37 -19 -2 -24 -10 -26 -40 -2 -25 -8 -38 -18 -38 -10 0 -14 13 -14 50
l0 50 40 0 c22 0 40 5 40 10 0 15 20 12 38 -7z m-1188 -22 c17 -33 12 -41 -26
-41 -23 0 -33 -4 -28 -11 3 -6 17 -8 31 -4 18 4 24 2 21 -7 -6 -17 -56 -22
-74 -7 -17 14 -19 60 -2 77 19 19 66 15 78 -7z m45 -8 l7 -28 10 28 c5 15 17
27 25 27 8 0 13 -6 10 -12 -2 -7 -10 -30 -18 -51 -17 -49 -36 -44 -59 16 -17
45 -17 47 0 47 11 0 21 -10 25 -27z m265 -14 c0 -52 24 -48 28 4 2 24 8 37 18
37 10 0 14 -13 14 -51 l0 -50 -42 3 -43 3 -3 48 c-2 37 0 47 12 47 12 0 16
-11 16 -41z m438 29 c7 -7 12 -24 12 -38 0 -33 -17 -50 -50 -50 -33 0 -50 17
-50 50 0 33 17 50 50 50 14 0 31 -5 38 -12z m110 -40 c4 -56 -15 -66 -20 -10
-2 25 -8 37 -18 37 -10 0 -16 -12 -18 -37 -2 -25 -8 -38 -18 -38 -10 0 -14 13
-14 51 l0 50 43 -3 42 -3 3 -47z m50 25 l10 -28 7 28 c4 15 14 27 22 27 11 0
13 -7 9 -25 -22 -88 -46 -98 -70 -28 -19 56 -19 53 -2 53 8 0 19 -12 24 -27z
m150 -5 c3 -25 0 -28 -28 -28 -20 0 -29 -4 -24 -11 3 -6 17 -8 31 -4 18 4 24
2 21 -7 -6 -17 -56 -22 -74 -7 -17 14 -18 61 -2 77 7 7 26 12 43 10 24 -2 31
-8 33 -30z m230 20 c7 -7 12 -24 12 -38 0 -33 -17 -50 -50 -50 -33 0 -50 17
-50 50 0 33 17 50 50 50 14 0 31 -5 38 -12z m82 3 c0 -5 -7 -11 -15 -15 -9 -3
-15 -19 -15 -41 0 -24 -4 -35 -15 -35 -11 0 -15 12 -15 50 0 49 1 50 30 50 17
0 30 -4 30 -9z m308 -3 c7 -7 12 -24 12 -38 0 -33 -17 -50 -50 -50 -33 0 -50
17 -50 50 0 33 17 50 50 50 14 0 31 -5 38 -12z m110 -40 c4 -56 -15 -66 -20
-10 -2 25 -8 37 -18 37 -10 0 -16 -12 -18 -37 -2 -25 -8 -38 -18 -38 -10 0
-14 13 -14 51 l0 50 43 -3 42 -3 3 -47z m100 40 c7 -7 12 -20 12 -30 0 -13 -8
-18 -30 -18 -16 0 -30 -5 -30 -10 0 -6 10 -9 23 -8 12 2 23 -1 25 -7 1 -5 -13
-11 -33 -13 -28 -3 -37 1 -46 20 -16 37 4 78 39 78 15 0 33 -5 40 -12z m50
-15 l10 -28 7 28 c4 15 13 27 21 27 18 0 18 -6 -2 -66 -20 -60 -31 -74 -55
-74 -23 0 -24 9 -3 25 16 11 16 15 0 60 -19 58 -19 55 -2 55 8 0 19 -12 24
-27z"/>
<path d="M420 5920 c0 -51 12 -64 38 -38 26 26 8 88 -25 88 -9 0 -13 -16 -13
-50z"/>
<path d="M1014 5916 c-8 -22 3 -49 19 -43 6 2 12 14 12 27 0 27 -22 39 -31 16z"/>
<path d="M545 5920 c-3 -5 3 -10 15 -10 12 0 18 5 15 10 -3 6 -10 10 -15 10
-5 0 -12 -4 -15 -10z"/>
<path d="M1294 5916 c-8 -22 3 -49 19 -43 6 2 12 14 12 27 0 27 -22 39 -31 16z"/>
<path d="M1600 5920 c0 -5 7 -10 15 -10 8 0 15 5 15 10 0 6 -7 10 -15 10 -8 0
-15 -4 -15 -10z"/>
<path d="M1834 5916 c-8 -22 3 -49 19 -43 6 2 12 14 12 27 0 27 -22 39 -31 16z"/>
<path d="M2224 5916 c-8 -22 3 -49 19 -43 6 2 12 14 12 27 0 27 -22 39 -31 16z"/>
<path d="M2440 5920 c0 -5 7 -10 15 -10 8 0 15 5 15 10 0 6 -7 10 -15 10 -8 0
-15 -4 -15 -10z"/>
<path d="M448 5383 c6 -2 18 -2 25 0 6 3 1 5 -13 5 -14 0 -19 -2 -12 -5z"/>
<path d="M588 5383 c7 -3 16 -2 19 1 4 3 -2 6 -13 5 -11 0 -14 -3 -6 -6z"/>
<path d="M768 5383 c6 -2 18 -2 25 0 6 3 1 5 -13 5 -14 0 -19 -2 -12 -5z"/>
<path d="M400 5124 c-10 -12 -11 -17 -1 -27 10 -9 11 -8 5 7 -6 16 -4 18 9 13
9 -3 17 -2 17 3 0 17 -18 20 -30 4z"/>
<path d="M663 5095 c0 -27 2 -38 4 -22 2 15 2 37 0 50 -2 12 -4 0 -4 -28z"/>
<path d="M953 5095 c0 -27 2 -38 4 -22 2 15 2 37 0 50 -2 12 -4 0 -4 -28z"/>
<path d="M338 5123 c6 -2 18 -2 25 0 6 3 1 5 -13 5 -14 0 -19 -2 -12 -5z"/>
<path d="M481 5088 c1 -24 3 -35 6 -25 3 11 11 16 18 13 15 -5 30 28 20 44 -3
5 -15 10 -26 10 -16 0 -19 -7 -18 -42z m39 17 c0 -8 -7 -15 -15 -15 -8 0 -15
7 -15 15 0 8 7 15 15 15 8 0 15 -7 15 -15z"/>
<path d="M710 5090 c0 -37 2 -41 23 -38 18 2 22 9 22 38 0 29 -4 36 -22 38
-21 3 -23 -1 -23 -38z m40 20 c0 -5 -7 -10 -15 -10 -8 0 -15 5 -15 10 0 6 7
10 15 10 8 0 15 -4 15 -10z m0 -35 c0 -8 -7 -15 -15 -15 -8 0 -15 7 -15 15 0
8 7 15 15 15 8 0 15 -7 15 -15z"/>
<path d="M544 5096 c-9 -23 3 -46 23 -45 17 1 17 2 1 6 -25 6 -22 23 3 23 12
0 19 5 17 13 -7 18 -37 21 -44 3z m33 -2 c-3 -3 -12 -4 -19 -1 -8 3 -5 6 6 6
11 1 17 -2 13 -5z"/>
<path d="M618 5102 c11 -7 11 -10 -2 -15 -23 -9 -20 -37 5 -37 16 0 20 5 17
27 -2 14 -10 28 -18 30 -12 4 -12 3 -2 -5z m12 -32 c0 -5 -4 -10 -10 -10 -5 0
-10 5 -10 10 0 6 5 10 10 10 6 0 10 -4 10 -10z"/>
<path d="M828 5102 c11 -7 11 -10 -2 -15 -23 -9 -20 -37 5 -37 16 0 20 5 17
27 -2 14 -10 28 -18 30 -12 4 -12 3 -2 -5z m12 -32 c0 -5 -4 -10 -10 -10 -5 0
-10 5 -10 10 0 6 5 10 10 10 6 0 10 -4 10 -10z"/>
<path d="M870 5095 c0 -8 5 -15 11 -15 5 0 7 5 3 12 -5 8 -2 9 10 5 10 -4 15
-3 11 3 -10 15 -35 12 -35 -5z"/>
<path d="M922 5080 c0 -19 2 -27 5 -17 2 9 2 25 0 35 -3 9 -5 1 -5 -18z"/>
<path d="M974 5096 c-9 -23 3 -46 23 -45 17 1 17 2 1 6 -25 6 -22 23 3 23 12
0 19 5 17 13 -7 18 -37 21 -44 3z m33 -2 c-3 -3 -12 -4 -19 -1 -8 3 -5 6 6 6
11 1 17 -2 13 -5z"/>
<path d="M1032 5080 c0 -19 2 -27 5 -17 2 9 2 25 0 35 -3 9 -5 1 -5 -18z"/>
<path d="M1060 5080 c0 -16 2 -30 4 -30 2 0 6 14 8 30 3 17 1 30 -4 30 -4 0
-8 -13 -8 -30z"/>
<path d="M1094 5096 c-9 -24 4 -48 23 -44 12 2 18 12 18 28 0 29 -32 41 -41
16z m36 -16 c0 -11 -7 -20 -15 -20 -8 0 -15 9 -15 20 0 11 7 20 15 20 8 0 15
-9 15 -20z"/>
<path d="M340 5083 c8 -4 20 -13 27 -22 10 -14 11 -13 6 7 -3 14 -13 22 -27
21 -15 0 -16 -2 -6 -6z"/>
<path d="M900 5072 c0 -6 -8 -13 -17 -15 -16 -4 -16 -5 -1 -6 18 -1 34 16 24
26 -3 4 -6 1 -6 -5z"/>
<path d="M398 5058 c5 -5 16 -8 23 -6 8 3 3 7 -10 11 -17 4 -21 3 -13 -5z"/>
<path d="M448 4613 c6 -2 18 -2 25 0 6 3 1 5 -13 5 -14 0 -19 -2 -12 -5z"/>
<path d="M588 4613 c7 -3 16 -2 19 1 4 3 -2 6 -13 5 -11 0 -14 -3 -6 -6z"/>
<path d="M878 4613 c7 -3 16 -2 19 1 4 3 -2 6 -13 5 -11 0 -14 -3 -6 -6z"/>
<path d="M321 4334 c-1 -35 20 -59 44 -50 10 4 14 17 13 43 l-1 38 -4 -38 c-6
-50 -35 -48 -44 3 l-6 35 -2 -31z"/>
<path d="M397 4353 c-13 -13 -7 -23 26 -38 28 -14 30 -14 13 0 -11 8 -23 15
-28 15 -4 0 -8 5 -8 11 0 6 9 9 20 6 11 -3 18 -1 14 4 -6 11 -28 12 -37 2z"/>
<path d="M463 4344 c-6 -16 12 -34 32 -34 6 1 2 5 -7 11 -22 12 -24 33 -2 25
8 -3 12 -2 9 4 -9 15 -25 12 -32 -6z"/>
<path d="M540 4320 c0 -37 2 -41 21 -38 12 2 27 11 33 21 14 22 -3 51 -33 55
-19 3 -21 -1 -21 -38z m45 0 c0 -16 -6 -26 -17 -28 -14 -3 -18 3 -18 28 0 25
4 31 18 28 11 -2 17 -12 17 -28z"/>
<path d="M836 4344 c-4 -9 -4 -19 -1 -22 3 -3 5 0 5 7 0 7 5 9 10 6 6 -3 10
-2 10 4 0 18 -18 21 -24 5z"/>
<path d="M614 4326 c-9 -24 4 -48 23 -44 12 2 18 12 18 28 0 29 -32 41 -41 16z
m36 -16 c0 -11 -7 -20 -15 -20 -8 0 -15 9 -15 20 0 11 7 20 15 20 8 0 15 -9
15 -20z"/>
<path d="M718 4332 c11 -7 11 -10 -2 -15 -23 -9 -20 -37 5 -37 16 0 20 5 17
27 -2 14 -10 28 -18 30 -12 4 -12 3 -2 -5z m12 -32 c0 -5 -4 -10 -10 -10 -5 0
-10 5 -10 10 0 6 5 10 10 10 6 0 10 -4 10 -10z"/>
<path d="M760 4310 c0 -16 2 -30 4 -30 2 0 6 14 8 30 3 17 1 30 -4 30 -4 0 -8
-13 -8 -30z"/>
<path d="M891 4308 c2 -28 3 -29 6 -7 3 21 10 26 33 26 23 0 30 -6 33 -24 4
-19 4 -18 3 4 -1 25 -5 28 -38 31 -37 2 -38 1 -37 -30z"/>
<path d="M984 4326 c-9 -23 3 -46 23 -45 17 1 17 2 1 6 -25 6 -22 23 3 23 12
0 19 5 17 13 -7 18 -37 21 -44 3z m33 -2 c-3 -3 -12 -4 -19 -1 -8 3 -5 6 6 6
11 1 17 -2 13 -5z"/>
<path d="M1040 4310 c0 -16 2 -30 4 -30 2 0 6 14 8 30 3 17 1 30 -4 30 -4 0
-8 -13 -8 -30z"/>
<path d="M1104 4325 c-13 -32 23 -63 40 -36 4 5 -3 7 -14 4 -16 -4 -20 0 -20
17 0 17 4 21 20 17 11 -3 18 -1 14 4 -8 14 -34 11 -40 -6z"/>
<path d="M1175 4331 c17 -8 18 -10 3 -10 -10 -1 -18 -5 -18 -11 0 -5 7 -7 15
-4 8 4 15 1 15 -4 0 -6 -8 -13 -17 -15 -13 -3 -12 -5 5 -6 20 -1 23 3 20 26
-2 19 -9 29 -23 30 l-20 3 20 -9z"/>
<path d="M1212 4310 c0 -19 2 -27 5 -17 2 9 2 25 0 35 -3 9 -5 1 -5 -18z"/>
<path d="M1236 4333 c7 -4 14 -19 17 -33 4 -22 5 -21 4 4 -1 17 -9 31 -17 33
-10 3 -11 2 -4 -4z"/>
<path d="M1274 4326 c-9 -24 4 -48 23 -44 12 2 18 12 18 28 0 29 -32 41 -41
16z m36 -16 c0 -11 -7 -20 -15 -20 -8 0 -15 9 -15 20 0 11 7 20 15 20 8 0 15
-9 15 -20z"/>
<path d="M843 4313 c-13 -2 -23 -8 -23 -12 0 -5 11 -6 25 -3 14 2 25 8 25 13
0 5 -1 8 -2 8 -2 -1 -13 -4 -25 -6z"/>
<path d="M398 4288 c6 -6 18 -8 28 -6 14 3 12 5 -9 10 -19 3 -25 2 -19 -4z"/>
<path d="M460 4288 c0 -4 6 -8 14 -8 8 0 17 4 20 8 2 4 -4 8 -15 8 -10 0 -19
-4 -19 -8z"/>
<path d="M430 3635 c-11 -13 -10 -14 5 -9 10 4 21 1 26 -7 5 -8 9 -9 9 -3 0 6
-6 17 -14 23 -10 9 -16 8 -26 -4z"/>
<path d="M331 3588 c1 -29 4 -43 6 -30 3 13 12 22 23 22 10 0 21 4 24 9 3 4
-6 6 -19 3 -20 -3 -25 0 -25 16 0 11 8 23 18 25 13 4 11 5 -5 6 -21 1 -23 -3
-22 -51z"/>
<path d="M563 3590 c0 -30 2 -43 4 -27 2 15 2 39 0 55 -2 15 -4 2 -4 -28z"/>
<path d="M905 3630 c-3 -6 1 -7 9 -4 18 7 21 14 7 14 -6 0 -13 -4 -16 -10z"/>
<path d="M1095 3630 c-3 -6 1 -7 9 -4 18 7 21 14 7 14 -6 0 -13 -4 -16 -10z"/>
<path d="M612 3590 c0 -19 2 -27 5 -17 2 9 2 25 0 35 -3 9 -5 1 -5 -18z"/>
<path d="M732 3590 c0 -19 2 -27 5 -17 2 9 2 25 0 35 -3 9 -5 1 -5 -18z"/>
<path d="M812 3590 c0 -19 2 -27 5 -17 2 9 2 25 0 35 -3 9 -5 1 -5 -18z"/>
<path d="M1002 3590 c0 -19 2 -27 5 -17 2 9 2 25 0 35 -3 9 -5 1 -5 -18z"/>
<path d="M662 3590 c0 -14 2 -19 5 -12 2 6 2 18 0 25 -3 6 -5 1 -5 -13z"/>
<path d="M782 3590 c0 -14 2 -19 5 -12 2 6 2 18 0 25 -3 6 -5 1 -5 -13z"/>
<path d="M862 3590 c0 -14 2 -19 5 -12 2 6 2 18 0 25 -3 6 -5 1 -5 -13z"/>
<path d="M1052 3590 c0 -14 2 -19 5 -12 2 6 2 18 0 25 -3 6 -5 1 -5 -13z"/>
<path d="M445 3550 c-16 -7 -17 -9 -3 -9 9 -1 20 4 23 9 7 11 7 11 -20 0z"/>
<path d="M907 3549 c7 -7 15 -10 18 -7 3 3 -2 9 -12 12 -14 6 -15 5 -6 -5z"/>
<path d="M1097 3549 c7 -7 15 -10 18 -7 3 3 -2 9 -12 12 -14 6 -15 5 -6 -5z"/>
<path d="M316 3198 c-22 -6 -55 -27 -76 -48 -102 -102 -55 -284 83 -318 65
-17 2259 -17 2324 0 62 15 116 70 132 133 26 104 -33 209 -132 233 -61 16
-2273 15 -2331 0z m963 -132 c15 -18 279 -20 329 -3 25 9 35 9 40 0 4 -7 30
-10 65 -9 52 2 89 -12 59 -22 -7 -2 -12 -16 -12 -32 l0 -29 -72 2 c-72 2 -73
2 -79 32 l-7 30 -1 -32 c-1 -31 -3 -32 -43 -31 -24 0 -49 5 -56 11 -9 7 -16 7
-20 1 -9 -13 -180 -16 -187 -4 -4 6 -14 5 -25 -2 -32 -20 -70 4 -70 45 0 18 5
38 12 45 16 16 53 15 67 -2z"/>
<path d="M1240 3026 c0 -23 2 -25 20 -14 10 7 18 13 17 13 -1 0 -10 7 -19 14
-16 12 -18 11 -18 -13z"/>
<path d="M1321 3014 c0 -11 3 -14 6 -6 3 7 2 16 -1 19 -3 4 -6 -2 -5 -13z"/>
<path d="M848 2523 c354 -2 930 -2 1280 0 350 1 61 2 -643 2 -704 0 -991 -1
-637 -2z"/>
<path d="M185 1370 c0 -624 1 -880 2 -568 2 313 2 823 0 1135 -1 313 -2 57 -2
-567z"/>
<path d="M2785 1370 c0 -624 1 -880 2 -568 2 313 2 823 0 1135 -1 313 -2 57
-2 -567z"/>
<path d="M1447 2313 c-14 -13 -6 -21 26 -25 17 -3 40 -8 50 -13 20 -8 24 14 5
33 -13 13 -70 17 -81 5z"/>
<path d="M1439 2259 c-23 -14 3 -44 41 -47 36 -4 60 12 44 28 -17 17 -70 29
-85 19z"/>
<path d="M1398 2023 c7 -3 16 -2 19 1 4 3 -2 6 -13 5 -11 0 -14 -3 -6 -6z"/>
<path d="M1398 1983 c7 -3 16 -2 19 1 4 3 -2 6 -13 5 -11 0 -14 -3 -6 -6z"/>
<path d="M1468 1983 c7 -3 16 -2 19 1 4 3 -2 6 -13 5 -11 0 -14 -3 -6 -6z"/>
<path d="M1146 1901 c-22 -25 -20 -36 12 -59 21 -16 24 -23 15 -33 -10 -10
-15 -9 -28 1 -10 8 -15 9 -15 2 0 -19 35 -33 48 -20 19 19 14 45 -14 63 -19
12 -23 20 -15 28 7 7 15 6 26 -3 20 -16 21 5 1 25 -12 12 -16 11 -30 -4z"/>
<path d="M1031 1843 c1 -32 4 -48 6 -35 5 27 29 29 45 2 7 -11 16 -20 21 -20
4 0 5 6 0 13 -4 6 -8 30 -8 52 0 38 -2 40 -32 43 l-33 3 1 -58z m54 27 c0 -8
-10 -16 -22 -18 -22 -3 -32 16 -16 32 12 11 38 2 38 -14z"/>
<path d="M1270 1890 c-13 -8 -13 -10 2 -10 13 0 18 -11 21 -47 3 -47 3 -47 5
10 2 58 -2 64 -28 47z"/>
<path d="M1354 1887 c-3 -8 -4 -32 -2 -53 3 -34 6 -39 28 -39 23 0 25 3 25 50
0 44 -3 50 -23 53 -13 2 -24 -3 -28 -11z m41 -43 c0 -28 -4 -39 -15 -39 -16 0
-26 45 -16 72 11 28 31 7 31 -33z"/>
<path d="M1486 1884 c-20 -51 8 -109 42 -87 19 12 26 44 18 79 -7 28 -50 34
-60 8z m50 -18 c3 -13 1 -34 -6 -46 -21 -40 -52 8 -34 54 9 24 33 19 40 -8z"/>
<path d="M1574 1874 c-11 -41 7 -79 36 -79 23 0 25 3 25 50 0 47 -2 50 -27 53
-22 3 -29 -2 -34 -24z m51 -29 c0 -29 -4 -40 -15 -40 -11 0 -16 13 -18 43 -3
38 -1 43 15 40 14 -2 18 -13 18 -43z"/>
<path d="M1664 1874 c-11 -41 7 -79 36 -79 23 0 25 3 25 50 0 47 -2 50 -27 53
-22 3 -29 -2 -34 -24z m51 -29 c0 -29 -4 -40 -15 -40 -11 0 -16 13 -18 43 -3
38 -1 43 15 40 14 -2 18 -13 18 -43z"/>
<path d="M1796 1884 c-20 -51 8 -109 42 -87 19 12 26 44 18 79 -7 28 -50 34
-60 8z m50 -18 c3 -13 1 -34 -6 -46 -21 -40 -52 8 -34 54 9 24 33 19 40 -8z"/>
<path d="M1886 1884 c-20 -51 8 -109 42 -87 19 12 26 44 18 79 -7 28 -50 34
-60 8z m50 -18 c3 -13 1 -34 -6 -46 -21 -40 -52 8 -34 54 9 24 33 19 40 -8z"/>
<path d="M1440 1800 c0 -5 5 -10 10 -10 6 0 10 5 10 10 0 6 -4 10 -10 10 -5 0
-10 -4 -10 -10z"/>
<path d="M1757 1791 c-4 -17 -3 -21 5 -13 5 5 8 16 6 23 -3 8 -7 3 -11 -10z"/>
<path d="M1428 954 c-16 -8 -28 -19 -28 -24 0 -6 -9 -10 -20 -10 -25 0 -54
-44 -47 -71 3 -12 0 -22 -9 -26 -43 -16 5 -23 162 -23 162 0 175 1 172 18 -3
14 -17 17 -91 20 -85 3 -88 4 -85 25 3 20 9 22 77 25 72 3 73 3 56 22 -14 16
-31 20 -77 20 -51 0 -58 2 -58 20 0 24 -15 25 -52 4z m32 -19 c0 -8 -7 -15
-15 -15 -8 0 -15 7 -15 15 0 8 7 15 15 15 8 0 15 -7 15 -15z m-62 -53 c2 -7
-3 -12 -12 -12 -9 0 -16 7 -16 16 0 17 22 14 28 -4z m62 3 c0 -8 -7 -15 -15
-15 -16 0 -20 12 -8 23 11 12 23 8 23 -8z m-62 -53 c2 -7 -3 -12 -12 -12 -9 0
-16 7 -16 16 0 17 22 14 28 -4z m62 -3 c0 -5 -7 -9 -15 -9 -15 0 -20 12 -9 23
8 8 24 -1 24 -14z"/>
<path d="M1320 741 c0 -5 7 -17 16 -25 23 -23 275 -23 298 0 9 8 16 20 16 25
0 5 -70 9 -165 9 -95 0 -165 -4 -165 -9z"/>
<path d="M1404 645 c29 -22 83 -29 127 -16 70 21 55 31 -48 31 -88 -1 -96 -2
-79 -15z"/>
<path d="M1080 510 c0 -32 4 -40 18 -39 10 0 12 3 5 6 -7 2 -13 17 -13 33 0
16 6 31 13 33 7 3 5 6 -5 6 -14 1 -18 -7 -18 -39z"/>
<path d="M1548 503 c6 -2 18 -2 25 0 6 3 1 5 -13 5 -14 0 -19 -2 -12 -5z"/>
<path d="M1388 493 c6 -2 18 -2 25 0 6 3 1 5 -13 5 -14 0 -19 -2 -12 -5z"/>
<path d="M1244 436 c-24 -27 -24 -37 1 -60 28 -26 26 -58 -1 -35 -22 18 -30 1
-8 -19 17 -16 20 -16 36 -3 25 22 22 49 -7 63 -14 6 -25 17 -25 25 0 17 27 17
33 1 2 -7 8 -10 12 -5 5 4 0 15 -11 26 -14 13 -23 15 -30 7z"/>
<path d="M1020 386 c0 -51 18 -71 55 -62 23 6 25 11 23 59 -1 49 -2 49 -5 10
-7 -77 -53 -84 -53 -7 0 24 -4 44 -10 44 -5 0 -10 -20 -10 -44z"/>
<path d="M1126 415 c-5 -15 1 -23 39 -50 16 -11 18 -16 8 -26 -10 -10 -16 -10
-25 -1 -18 18 -33 15 -18 -4 20 -23 64 -14 68 14 3 18 -3 25 -27 33 -17 6 -31
17 -31 25 0 17 37 19 43 2 2 -7 8 -10 12 -6 13 12 -6 28 -35 28 -15 0 -30 -7
-34 -15z"/>
<path d="M1357 423 c-4 -3 -7 -11 -7 -17 0 -6 5 -5 12 2 7 7 18 12 25 12 22 0
15 -35 -12 -60 -34 -32 -31 -40 13 -39 23 1 28 3 15 6 -28 5 -28 7 -2 43 12
16 19 36 16 44 -6 16 -48 22 -60 9z"/>
<path d="M1494 417 c-3 -8 -4 -32 -2 -53 3 -34 6 -39 28 -39 23 0 25 3 25 50
0 44 -3 50 -23 53 -13 2 -24 -3 -28 -11z m41 -43 c0 -28 -4 -39 -15 -39 -16 0
-26 45 -16 72 11 28 31 7 31 -33z"/>
<path d="M1584 416 c-3 -8 -4 -31 -2 -52 3 -34 6 -39 28 -39 29 0 47 38 36 79
-5 19 -13 26 -32 26 -13 0 -27 -6 -30 -14z m46 -35 c0 -42 -16 -63 -31 -40
-10 17 -12 63 -2 72 18 19 33 5 33 -32z"/>
<path d="M1674 416 c-3 -8 -4 -31 -2 -52 3 -34 6 -39 28 -39 29 0 47 38 36 79
-5 19 -13 26 -32 26 -13 0 -27 -6 -30 -14z m46 -35 c0 -42 -16 -63 -31 -40
-10 17 -12 63 -2 72 18 19 33 5 33 -32z"/>
<path d="M1804 417 c-3 -8 -4 -32 -2 -53 3 -34 6 -39 28 -39 23 0 25 3 25 50
0 44 -3 50 -23 53 -13 2 -24 -3 -28 -11z m41 -43 c0 -28 -4 -39 -15 -39 -16 0
-26 45 -16 72 11 28 31 7 31 -33z"/>
<path d="M1894 417 c-3 -8 -4 -32 -2 -53 3 -34 6 -39 28 -39 23 0 25 3 25 50
0 44 -3 50 -23 53 -13 2 -24 -3 -28 -11z m41 -43 c0 -28 -4 -39 -15 -39 -16 0
-26 45 -16 72 11 28 31 7 31 -33z"/>
<path d="M1762 320 c0 -14 2 -19 5 -12 2 6 2 18 0 25 -3 6 -5 1 -5 -13z"/>
<path d="M848 213 c354 -2 930 -2 1280 0 350 1 61 2 -643 2 -704 0 -991 -1
-637 -2z"/>
</g>
</svg>
